<svg xmlns="http://www.w3.org/2000/svg" viewBox="0 0 48.16 48.16"><defs><style>.cls-1{fill:#fff;}</style></defs><title>0-clear</title><g id="Layer_2" data-name="Layer 2"><g id="Layer_1-2" data-name="Layer 1"><path d="M24.84.08c2.47,2.06,2,11.81-2.57,7.54C21.31,5.86,21.64-.8,24.84.08Z"/><path d="M.08,23.32c2.06-2.48,11.81-2,7.54,2.56C5.86,26.85-.8,26.52.08,23.32Z"/><path d="M48.08,24.84c-2.06,2.47-11.81,2-7.54-2.57C42.3,21.31,49,21.64,48.08,24.84Z"/><path d="M23.32,48.08c-2.47-2.06-2-11.81,2.56-7.54C26.85,42.3,26.52,49,23.32,48.08Z"/><path d="M24,37.09c-16.93.23-16.81-26.5.22-26C41.06,10.93,40.89,37.48,24,37.09Zm8.81-13C33,12.74,15.21,12.71,15.33,24,15.16,35.41,32.93,35.45,32.83,24.11Z"/><path d="M11.88,14.07C9.75,12.86,5,9.91,7.16,7.19,10,4.61,16.68,12.38,11.88,14.07Z"/><path d="M36.17,14c-4.47-1.77,1.51-8.5,4.59-6.85C43,9.65,38.32,13,36.17,14Z"/><path d="M14.09,36.29C12.78,38.4,10,43.14,7.21,41,4.6,38.18,12.39,31.47,14.09,36.29Z"/><path d="M34.32,36.58c.66-5.76,9,1.53,6.57,4.37C38.28,42.69,35.4,38.54,34.32,36.58Z"/><path class="cls-1" d="M32.83,24.11c.1,11.34-17.67,11.3-17.5-.07C15.21,12.71,33,12.74,32.83,24.11Z"/></g></g></svg>