<svg xmlns="http://www.w3.org/2000/svg" viewBox="0 0 45.72 44.72"><defs><style>.cls-1{fill:#fff;}</style></defs><title>1-mainly-clear</title><g id="Layer_2" data-name="Layer 2"><g id="Layer_1-2" data-name="Layer 1"><path d="M30.62,29.76a1.7,1.7,0,0,1-.64-.94,9.06,9.06,0,0,0-7-7.56c-3.95-1-7.19.38-9.72,3.55a1.26,1.26,0,0,1-1,.4,6,6,0,0,0-7.24,4.67,1.42,1.42,0,0,1-.66.77C1,32.4-.6,35.53.21,39.07a7.38,7.38,0,0,0,7.51,5.64H25.84a8.18,8.18,0,0,0,4.78-14.95Zm1.72,8.56A6.5,6.5,0,0,1,26,43.07c-3.09,0-6.17,0-9.26,0s-6,0-9,0a5.74,5.74,0,0,1-2-11.19,1.26,1.26,0,0,0,.95-1.14A4.4,4.4,0,0,1,12.61,27a1.12,1.12,0,0,0,1.51-.57,7.62,7.62,0,0,1,8.45-3.64,7.91,7.91,0,0,1,5.94,6.77,2,2,0,0,0,.83,1.23A6.68,6.68,0,0,1,32.34,38.32Z"/><path class="cls-1" d="M32.34,38.32A6.5,6.5,0,0,1,26,43.07c-3.09,0-6.17,0-9.26,0s-6,0-9,0a5.74,5.74,0,0,1-2-11.19,1.26,1.26,0,0,0,.95-1.14A4.4,4.4,0,0,1,12.61,27a1.12,1.12,0,0,0,1.51-.57,7.62,7.62,0,0,1,8.45-3.64,7.91,7.91,0,0,1,5.94,6.77,2,2,0,0,0,.83,1.23A6.68,6.68,0,0,1,32.34,38.32Z"/><path class="cls-1" d="M16.69,43h-9a5.73,5.73,0,0,1-2-11.19,1.24,1.24,0,0,0,.94-1.14A4.4,4.4,0,0,1,12.6,27a1.12,1.12,0,0,0,1.51-.56,7.63,7.63,0,0,1,8.45-3.65,7.91,7.91,0,0,1,5.94,6.78,2,2,0,0,0,.84,1.22,6.67,6.67,0,0,1,3,7.51A6.48,6.48,0,0,1,26,43C22.87,43,19.78,43,16.69,43Z"/><path d="M24.82.07c2.22,1.85,1.81,10.59-2.3,6.76C21.65,5.25,22-.72,24.82.07Z"/><path d="M2.63,20.9c1.85-2.22,10.58-1.79,6.76,2.3C7.81,24.07,1.84,23.77,2.63,20.9Z"/><path d="M45.65,22.26c-1.85,2.22-10.59,1.81-6.76-2.3C40.47,19.1,46.44,19.39,45.65,22.26Z"/><path d="M23.46,43.09c-2.22-1.84-1.81-10.59,2.3-6.76C26.63,37.91,26.33,43.88,23.46,43.09Z"/><path d="M24.08,33.24C8.92,33.45,9,9.49,24.28,9.91,39.36,9.79,39.2,33.6,24.08,33.24ZM32,21.61c.16-10.19-15.79-10.22-15.68-.06C16.15,31.73,32.08,31.77,32,21.61Z"/><path d="M13.21,12.61C11.3,11.53,7.06,8.88,9,6.45,11.49,4.13,17.5,11.1,13.21,12.61Z"/><path d="M35,12.5c-4-1.58,1.35-7.62,4.11-6.13C41.08,8.65,36.9,11.68,35,12.5Z"/><path d="M15.19,32.52C14,34.42,11.49,38.66,9,36.76,6.68,34.22,13.66,28.21,15.19,32.52Z"/><path d="M33.32,32.79c.59-5.17,8,1.36,5.89,3.91C36.86,38.26,34.29,34.54,33.32,32.79Z"/><path class="cls-1" d="M31.94,21.61c.16-10.19-15.79-10.22-15.69-.06C16.1,31.73,32,31.77,31.94,21.61Z"/></g></g></svg>