<svg xmlns="http://www.w3.org/2000/svg" viewBox="0 0 47.27 46.83"><defs><style>.cls-1{fill:#fff;}</style></defs><title>2-partly-cloudy</title><g id="Layer_2" data-name="Layer 2"><g id="Layer_1-2" data-name="Layer 1"><path d="M29.35.06c1.9,1.58,1.55,9.07-2,5.79C26.64,4.5,26.89-.61,29.35.06Z"/><path d="M10.33,17.91c1.59-1.9,9.07-1.53,5.79,2C14.77,20.63,9.66,20.37,10.33,17.91Z"/><path d="M47.21,19.08c-1.59,1.9-9.08,1.55-5.8-2C42.76,16.37,47.88,16.62,47.21,19.08Z"/><path d="M28.18,36.94c-1.9-1.59-1.54-9.08,2-5.8C30.9,32.5,30.64,37.61,28.18,36.94Z"/><path d="M28.72,28.49c-13,.18-12.91-20.36.17-20C41.81,8.39,41.68,28.8,28.72,28.49Zm6.77-10C35.63,9.79,22,9.76,22,18.47,21.92,27.2,35.57,27.23,35.49,18.52Z"/><path d="M19.4,10.81c-1.64-.93-5.28-3.2-3.63-5.28C17.93,3.54,23.08,9.51,19.4,10.81Z"/><path d="M38.06,10.71c-3.44-1.35,1.16-6.53,3.53-5.25C43.29,7.42,39.71,10,38.06,10.71Z"/><path d="M21.1,27.88c-1,1.62-3.17,5.26-5.29,3.62C13.8,29.33,19.78,24.18,21.1,27.88Z"/><path d="M36.63,28.1c.51-4.42,6.9,1.17,5,3.36C39.67,32.8,37.47,29.6,36.63,28.1Z"/><path class="cls-1" d="M35.46,18.52c.13-8.73-13.54-8.75-13.45-.05C21.88,27.2,35.53,27.23,35.46,18.52Z"/><path d="M32.9,30.76a1.87,1.87,0,0,1-.69-1c-.86-4.25-3.34-7.07-7.5-8.12S17,22,14.27,25.44a1.33,1.33,0,0,1-1,.43c-3.81-.62-6.72,1.25-7.78,5a1.5,1.5,0,0,1-.71.82C1.05,33.6-.64,37,.22,40.76A7.94,7.94,0,0,0,8.3,46.83c3.21,0,6.41,0,9.62,0s6.56,0,9.84,0A8.8,8.8,0,0,0,32.9,30.76ZM34.75,40a7,7,0,0,1-6.86,5.1c-3.31,0-6.63,0-9.95,0H8.22A6.16,6.16,0,0,1,6,33.05a1.34,1.34,0,0,0,1-1.23,4.74,4.74,0,0,1,6.51-4,1.2,1.2,0,0,0,1.62-.6,8.16,8.16,0,0,1,9.08-3.91,8.48,8.48,0,0,1,6.38,7.27,2.16,2.16,0,0,0,.9,1.32A7.18,7.18,0,0,1,34.75,40Z"/><path class="cls-1" d="M34.75,40a7,7,0,0,1-6.86,5.1c-3.31,0-6.63,0-9.95,0H8.22A6.16,6.16,0,0,1,6,33.05a1.34,1.34,0,0,0,1-1.23,4.74,4.74,0,0,1,6.51-4,1.2,1.2,0,0,0,1.62-.6,8.16,8.16,0,0,1,9.08-3.91,8.48,8.48,0,0,1,6.38,7.27,2.16,2.16,0,0,0,.9,1.32A7.18,7.18,0,0,1,34.75,40Z"/><path class="cls-1" d="M17.94,45H8.21A6.16,6.16,0,0,1,6,33a1.34,1.34,0,0,0,1-1.22,4.73,4.73,0,0,1,6.5-4,1.2,1.2,0,0,0,1.62-.61,8.19,8.19,0,0,1,9.08-3.91,8.49,8.49,0,0,1,6.38,7.28,2.16,2.16,0,0,0,.9,1.31,7.18,7.18,0,0,1,3.22,8.07A7,7,0,0,1,27.89,45C24.57,45,21.25,45,17.94,45Z"/></g></g></svg>