<svg xmlns="http://www.w3.org/2000/svg" viewBox="0 0 40.14 27.89"><title>3-overcast_1</title><g id="Layer_2" data-name="Layer 2"><g id="Layer_1-2" data-name="Layer 1"><path d="M35.92,10.34a2,2,0,0,1-.75-1.1C34.23,4.6,31.52,1.52,27,.37s-8.43.44-11.4,4.16A1.5,1.5,0,0,1,14.43,5c-4.16-.68-7.33,1.36-8.49,5.48a1.68,1.68,0,0,1-.78.9c-4,2.06-5.86,5.73-4.92,9.88.91,4,4.41,6.61,8.82,6.62,3.5,0,7,0,10.5,0s7.17,0,10.75,0a9.6,9.6,0,0,0,5.61-17.54Zm2,10A7.63,7.63,0,0,1,30.45,26c-3.62,0-7.24,0-10.86,0H9A6.72,6.72,0,0,1,6.58,12.84,1.47,1.47,0,0,0,7.69,11.5c.53-3.65,3.57-5.51,7.1-4.38a1.31,1.31,0,0,0,1.77-.66,8.94,8.94,0,0,1,9.92-4.27,9.26,9.26,0,0,1,7,7.94,2.34,2.34,0,0,0,1,1.44A7.84,7.84,0,0,1,37.94,20.38Z"/></g></g></svg>