<svg xmlns="http://www.w3.org/2000/svg" viewBox="0 0 45.75 32.65"><title>45-fog</title><g id="Layer_2" data-name="Layer 2"><g id="Layer_1-2" data-name="Layer 1"><path d="M30.85,11.47C28.31,4.75,26.25,2.81,22,3c-4.08.21-6.51,2.74-7.79,8.25A7.81,7.81,0,0,0,8.05,14.8c-.36.55-1.83.37-3.06.58.67-3.17,2.55-4.85,4.95-6.2a5.14,5.14,0,0,0,2.13-2.13C14,2.71,17.22.21,22,0A10.46,10.46,0,0,1,32.48,6.56a2.9,2.9,0,0,0,2.88,2.06,8.15,8.15,0,0,1,7,6.44,3.52,3.52,0,0,1-4-1.21c-1.19-1.26-3.3-1.72-5.07-2.34A8,8,0,0,0,30.85,11.47Z"/><path d="M18.76,26.85c-5.34,0-10.68,0-16,0-1.19,0-2.89.32-2.73-1.55,0-.57,1.69-1.42,2.61-1.43,10.83-.09,21.66-.06,32.49-.05,1.16,0,2.74-.13,2.5,1.55-.08.61-1.68,1.4-2.61,1.42C29.59,26.92,24.17,26.85,18.76,26.85Z"/><path d="M27.1,32.64H10.62c-1.21,0-2.67.06-2.51-1.58.06-.56,1.55-1.39,2.39-1.4,11-.09,22-.06,33-.05,1.1,0,2.55,0,2.25,1.55-.12.62-1.53,1.39-2.37,1.41C37.93,32.7,32.51,32.64,27.1,32.64Z"/><path d="M23.65,18c5.49,0,11,0,16.46,0,1.09,0,2.38-.14,2.35,1.51S41.13,21,40.05,21H7.13C6,21,4.6,21,4.83,19.5c.1-.6,1.53-1.41,2.36-1.42C12.68,18,18.16,18,23.65,18Z"/></g></g></svg>