<svg xmlns="http://www.w3.org/2000/svg" viewBox="0 0 45.75 35.19"><title>48-fog-rime_1</title><g id="Layer_2" data-name="Layer 2"><g id="Layer_1-2" data-name="Layer 1"><path d="M30.85,11.47C28.31,4.75,26.25,2.81,22,3c-4.08.21-6.51,2.74-7.79,8.25A7.81,7.81,0,0,0,8.05,14.8c-.36.55-1.83.37-3.06.58.67-3.17,2.55-4.85,4.95-6.2a5.14,5.14,0,0,0,2.13-2.13C14,2.71,17.22.21,22,0A10.46,10.46,0,0,1,32.48,6.56a2.9,2.9,0,0,0,2.88,2.06,8.15,8.15,0,0,1,7,6.44,3.52,3.52,0,0,1-4-1.21c-1.19-1.26-3.3-1.72-5.07-2.34A8,8,0,0,0,30.85,11.47Z"/><path d="M18.76,26.85c-5.34,0-10.68,0-16,0-1.19,0-2.89.32-2.73-1.55,0-.57,1.69-1.42,2.61-1.43,10.83-.09,21.66-.06,32.49-.05,1.16,0,2.74-.13,2.5,1.55-.08.61-1.68,1.4-2.61,1.42C29.59,26.92,24.17,26.85,18.76,26.85Z"/><path d="M31.63,32.64H19.16c-.92,0-2,.06-1.9-1.58,0-.56,1.17-1.39,1.81-1.4,8.31-.09,16.63-.06,25-.05.83,0,1.93,0,1.7,1.55a2.3,2.3,0,0,1-1.79,1.41C39.83,32.7,35.73,32.64,31.63,32.64Z"/><path d="M23.65,18c5.49,0,11,0,16.46,0,1.09,0,2.38-.14,2.35,1.51S41.13,21,40.05,21H7.13C6,21,4.6,21,4.83,19.5c.1-.6,1.53-1.41,2.36-1.42C12.68,18,18.16,18,23.65,18Z"/><path d="M25.31,15.86c-.1,1.1-.36,1.47-1,1.5s-1-.35-1.15-1.48c-1.11.38-1.55.33-1.86-.25s-.11-1,.8-1.68c-.38-.31-.89-.52-.93-1.1a1,1,0,0,1,.18-.65c.33-.53.84-.57,1.81-.14.11-.47,0-1,.51-1.34a1.09,1.09,0,0,1,.72-.17c.63.07.85.41.94,1.52.7-.31,1.44-.68,1.93.26.29.55.05,1-.85,1.63.38.28.87.46.93,1a1,1,0,0,1-.14.73C26.85,16.22,26.42,16.26,25.31,15.86Z"/><path d="M12,33.69c-.09,1.1-.35,1.48-1,1.5s-1-.35-1.15-1.48c-1.12.39-1.55.33-1.87-.24s-.1-1,.81-1.69c-.38-.31-.89-.51-.93-1.1A1.06,1.06,0,0,1,8,30c.34-.53.85-.57,1.82-.13.11-.48,0-1,.51-1.34a1,1,0,0,1,.72-.17c.63.06.85.41.93,1.51.7-.31,1.45-.68,1.94.26.29.55.05,1-.86,1.64.38.27.87.46.93,1a1,1,0,0,1-.13.72C13.51,34.05,13.09,34.1,12,33.69Z"/><path d="M43.47,27.19c-.09,1.1-.35,1.48-1,1.5s-1-.35-1.15-1.48c-1.12.39-1.55.33-1.87-.24s-.1-1,.81-1.69c-.38-.31-.89-.51-.93-1.1a1.06,1.06,0,0,1,.17-.65c.34-.53.85-.57,1.82-.13.11-.48,0-1,.51-1.34a1,1,0,0,1,.72-.17c.63.06.85.41.93,1.51.7-.31,1.45-.68,1.94.26.29.55.05,1-.86,1.64.38.27.87.46.93,1a1,1,0,0,1-.13.72C45,27.55,44.59,27.6,43.47,27.19Z"/></g></g></svg>