<svg xmlns="http://www.w3.org/2000/svg" viewBox="0 0 47.88 41.61"><defs><style>.cls-1{stroke:#000;stroke-linecap:round;stroke-linejoin:round;}</style></defs><title>53-moderate-drizzle_1</title><g id="Layer_2" data-name="Layer 2"><g id="Layer_1-2" data-name="Layer 1"><path d="M47.88,20.63A12.27,12.27,0,0,1,35.51,32.19c-8.89,0-17.78.09-26.66-.1A9.31,9.31,0,0,1,0,22.81a9.62,9.62,0,0,1,8.47-9.48A.74.74,0,0,0,9,12.81,13.28,13.28,0,0,1,19.69.28,13.61,13.61,0,0,1,34.62,7.72a.82.82,0,0,0,.58.44c7,.1,11.77,4.35,12.6,11.22a1.77,1.77,0,0,0,.08.31ZM22.7,29v.1h6.73c2.25,0,4.49,0,6.74,0a9,9,0,0,0,8.55-9.75,9.14,9.14,0,0,0-9.95-8,2.1,2.1,0,0,1-2.71-1.6A10.37,10.37,0,0,0,20.23,3.32,10.18,10.18,0,0,0,12,13.84c.15,2.27-.13,2.56-2.38,2.54A6.48,6.48,0,0,0,3.14,22c-.3,3.43,1.95,6.69,5.34,6.9C13.21,29.2,18,29,22.7,29Z"/><line class="cls-1" x1="16.56" y1="34.24" x2="15.02" y2="36.07"/><line class="cls-1" x1="37.02" y1="39.28" x2="35.48" y2="41.11"/><line class="cls-1" x1="24.31" y1="36.99" x2="23.27" y2="38.32"/><line class="cls-1" x1="7.11" y1="37.49" x2="6.06" y2="38.82"/><line class="cls-1" x1="33.11" y1="35.65" x2="32.06" y2="36.99"/></g></g></svg>