<svg xmlns="http://www.w3.org/2000/svg" viewBox="0 0 47.88 43.07"><defs><style>.cls-1{stroke:#000;stroke-linecap:round;stroke-linejoin:round;}</style></defs><title>57-drizzle-freezing-dense_1</title><g id="Layer_2" data-name="Layer 2"><g id="Layer_1-2" data-name="Layer 1"><path d="M47.88,20.63A12.27,12.27,0,0,1,35.51,32.19c-8.89,0-17.78.09-26.66-.1A9.31,9.31,0,0,1,0,22.81a9.62,9.62,0,0,1,8.47-9.48A.74.74,0,0,0,9,12.81,13.28,13.28,0,0,1,19.69.28,13.61,13.61,0,0,1,34.62,7.72a.82.82,0,0,0,.58.44c7,.1,11.77,4.35,12.6,11.22a1.77,1.77,0,0,0,.08.31ZM22.7,29v.1h6.73c2.25,0,4.49,0,6.74,0a9,9,0,0,0,8.55-9.75,9.14,9.14,0,0,0-9.95-8,2.1,2.1,0,0,1-2.71-1.6A10.37,10.37,0,0,0,20.23,3.32,10.18,10.18,0,0,0,12,13.84c.15,2.27-.13,2.56-2.38,2.54A6.48,6.48,0,0,0,3.14,22c-.3,3.43,1.95,6.69,5.34,6.9C13.21,29.2,18,29,22.7,29Z"/><path d="M11.54,37.39c-.09,1.1-.35,1.47-1,1.5s-1-.35-1.16-1.48c-1.11.38-1.55.32-1.86-.25s-.11-1,.8-1.68c-.38-.31-.88-.52-.93-1.1a1,1,0,0,1,.18-.66c.34-.52.85-.57,1.82-.13.1-.47,0-1,.5-1.34a1.1,1.1,0,0,1,.72-.17c.63.07.85.41.94,1.52.7-.31,1.44-.68,1.93.26.29.55,0,1-.85,1.63.38.28.87.46.93,1a1.09,1.09,0,0,1-.13.73C13.08,37.75,12.65,37.79,11.54,37.39Z"/><line class="cls-1" x1="16.61" y1="34.9" x2="15.06" y2="36.74"/><line class="cls-1" x1="28.11" y1="40.74" x2="26.56" y2="42.57"/><line class="cls-1" x1="39.94" y1="33.07" x2="38.4" y2="34.9"/><line class="cls-1" x1="37.06" y1="39.94" x2="35.52" y2="41.78"/><line class="cls-1" x1="25.27" y1="37.32" x2="24.23" y2="38.65"/><line class="cls-1" x1="5.82" y1="32.82" x2="4.78" y2="34.15"/><line class="cls-1" x1="24.82" y1="33.24" x2="23.78" y2="34.57"/><line class="cls-1" x1="7.15" y1="38.15" x2="6.11" y2="39.49"/><line class="cls-1" x1="33.15" y1="36.32" x2="32.11" y2="37.65"/><line class="cls-1" x1="17.4" y1="40.32" x2="16.36" y2="41.65"/></g></g></svg>