<svg xmlns="http://www.w3.org/2000/svg" viewBox="0 0 47.88 48.25"><title>75-heavy-snow-fall</title><g id="Layer_2" data-name="Layer 2"><g id="Layer_1-2" data-name="Layer 1"><path d="M47.88,20.63A12.27,12.27,0,0,1,35.51,32.19c-8.89,0-17.78.09-26.66-.1A9.31,9.31,0,0,1,0,22.81a9.62,9.62,0,0,1,8.47-9.48A.74.74,0,0,0,9,12.81,13.28,13.28,0,0,1,19.69.28,13.61,13.61,0,0,1,34.62,7.72a.82.82,0,0,0,.58.44c7,.1,11.77,4.35,12.6,11.22a1.77,1.77,0,0,0,.08.31ZM22.7,29v.1h6.73c2.25,0,4.49,0,6.74,0a9,9,0,0,0,8.55-9.75,9.14,9.14,0,0,0-9.95-8,2.1,2.1,0,0,1-2.71-1.6A10.37,10.37,0,0,0,20.23,3.32,10.18,10.18,0,0,0,12,13.84c.15,2.27-.13,2.56-2.38,2.54A6.48,6.48,0,0,0,3.14,22c-.3,3.43,1.95,6.69,5.34,6.9C13.21,29.2,18,29,22.7,29Z"/><path d="M29.35,42.47a.26.26,0,0,1-.25-.2L28.55,40l-1.93,1.4a.23.23,0,0,1-.15,0,.27.27,0,0,1-.17-.06.25.25,0,0,1,0-.32l1.24-2-2.35-.38a.24.24,0,0,1-.21-.23.25.25,0,0,1,.19-.26l2.32-.55-1.4-1.94a.24.24,0,0,1,0-.31.25.25,0,0,1,.18-.08.31.31,0,0,1,.13,0l2,1.25.38-2.35A.25.25,0,0,1,29,34h0a.24.24,0,0,1,.24.19l.56,2.32,1.93-1.4a.19.19,0,0,1,.14,0,.21.21,0,0,1,.17.07.25.25,0,0,1,.05.31l-1.25,2,2.36.38a.27.27,0,0,1,.21.24.26.26,0,0,1-.19.25l-2.32.56,1.4,1.93a.24.24,0,0,1,0,.31.24.24,0,0,1-.19.08.31.31,0,0,1-.13,0L30,39.9l-.38,2.36a.26.26,0,0,1-.23.21Z"/><path d="M29,34.21l.64,2.68,2.23-1.62-1.44,2.35,2.73.44-2.69.64,1.62,2.23-2.35-1.44-.43,2.73-.65-2.69-2.23,1.62,1.44-2.35-2.72-.43,2.68-.65-1.62-2.23,2.35,1.44L29,34.21m0-.5h0a.49.49,0,0,0-.48.42l-.31,2-1.72-1a.51.51,0,0,0-.63.09.5.5,0,0,0,0,.63L27,37.41l-2,.47a.49.49,0,0,0-.38.5.5.5,0,0,0,.42.48l2,.32L26,40.89a.5.5,0,0,0,.09.63.48.48,0,0,0,.34.13.52.52,0,0,0,.29-.09l1.63-1.18.47,1.95a.5.5,0,0,0,.49.39h0a.51.51,0,0,0,.47-.43l.32-2,1.71,1a.51.51,0,0,0,.63-.09.5.5,0,0,0,0-.63L31.36,39l2-.47a.49.49,0,0,0,.39-.5.51.51,0,0,0-.42-.48l-2-.31,1.05-1.72a.49.49,0,0,0-.09-.63.47.47,0,0,0-.34-.13.52.52,0,0,0-.29.09L30,36l-.47-1.95a.48.48,0,0,0-.48-.38Z"/><path d="M24.22,48.05A.19.19,0,0,1,24,47.9l-.45-1.85-1.53,1.12a.21.21,0,0,1-.12,0,.18.18,0,0,1-.13-.05.2.2,0,0,1,0-.25l1-1.61L20.88,45a.2.2,0,0,1-.16-.19.19.19,0,0,1,.15-.2l1.84-.44L21.6,42.62a.19.19,0,0,1,0-.25.18.18,0,0,1,.14-.06.17.17,0,0,1,.1,0l1.62,1,.3-1.87a.19.19,0,0,1,.19-.17h0a.21.21,0,0,1,.2.15l.44,1.85,1.53-1.12a.27.27,0,0,1,.12,0,.15.15,0,0,1,.13,0,.2.2,0,0,1,0,.25l-1,1.61,1.87.3a.22.22,0,0,1,.17.19.2.2,0,0,1-.16.2l-1.84.44,1.11,1.54a.2.2,0,0,1,0,.25.2.2,0,0,1-.15.06.19.19,0,0,1-.1,0l-1.62-1-.29,1.87a.21.21,0,0,1-.19.17Z"/><path d="M24,41.49l.51,2.13,1.78-1.29L25.11,44.2l2.17.35-2.13.51,1.28,1.77-1.87-1.14-.34,2.16-.51-2.13L21.93,47l1.15-1.87-2.16-.35,2.13-.51-1.29-1.77,1.87,1.14L24,41.49m0-.4h0a.41.41,0,0,0-.38.34L23.33,43,22,42.17a.42.42,0,0,0-.21-.06.37.37,0,0,0-.29.13.39.39,0,0,0,0,.5L22.38,44l-1.56.38a.39.39,0,0,0-.3.4.39.39,0,0,0,.33.37l1.58.26L21.6,46.8a.41.41,0,0,0,.06.5.41.41,0,0,0,.27.1.4.4,0,0,0,.24-.07l1.29-.94.37,1.55a.41.41,0,0,0,.39.31h0a.41.41,0,0,0,.38-.34l.25-1.57,1.36.83a.42.42,0,0,0,.21.06.36.36,0,0,0,.29-.13.39.39,0,0,0,0-.5l-.93-1.29,1.55-.38a.39.39,0,0,0,.3-.4.37.37,0,0,0-.33-.37l-1.58-.26.84-1.36a.39.39,0,0,0-.34-.6A.39.39,0,0,0,26,42l-1.3.94-.37-1.55a.4.4,0,0,0-.39-.31Z"/><path d="M18.85,42.47a.26.26,0,0,1-.25-.2L18.05,40l-1.93,1.4a.23.23,0,0,1-.15,0,.27.27,0,0,1-.17-.06.25.25,0,0,1,0-.32L17,39l-2.35-.38a.24.24,0,0,1-.21-.23.25.25,0,0,1,.19-.26L17,37.57l-1.4-1.94a.24.24,0,0,1,0-.31.25.25,0,0,1,.18-.08.31.31,0,0,1,.13,0l2,1.25.38-2.35a.25.25,0,0,1,.24-.21h0a.24.24,0,0,1,.24.19l.56,2.32,1.93-1.4a.19.19,0,0,1,.14,0,.21.21,0,0,1,.17.07.25.25,0,0,1,.05.31l-1.25,2,2.36.38a.27.27,0,0,1,.21.24.26.26,0,0,1-.19.25l-2.32.56,1.4,1.93a.24.24,0,0,1,0,.31.24.24,0,0,1-.19.08.31.31,0,0,1-.13,0l-2-1.25-.38,2.36a.26.26,0,0,1-.23.21Z"/><path d="M18.54,34.21l.64,2.68,2.23-1.62L20,37.62l2.73.44L20,38.7l1.62,2.23-2.35-1.44-.43,2.73-.65-2.69L16,41.15l1.44-2.35-2.72-.43,2.68-.65-1.62-2.23,2.35,1.44.44-2.72m0-.5h0a.49.49,0,0,0-.48.42l-.31,2-1.72-1a.51.51,0,0,0-.63.09.5.5,0,0,0,0,.63l1.18,1.63-2,.47a.49.49,0,0,0-.38.5.5.5,0,0,0,.42.48l2,.32-1.05,1.71a.5.5,0,0,0,.09.63.48.48,0,0,0,.34.13.52.52,0,0,0,.29-.09l1.63-1.18.47,1.95a.5.5,0,0,0,.49.39h0a.51.51,0,0,0,.47-.43l.32-2,1.71,1a.51.51,0,0,0,.63-.09.5.5,0,0,0,0-.63L20.86,39l1.95-.47a.49.49,0,0,0,.39-.5.51.51,0,0,0-.42-.48l-2-.31,1.05-1.72a.49.49,0,0,0-.09-.63.47.47,0,0,0-.34-.13.52.52,0,0,0-.29.09L19.49,36,19,34.09a.48.48,0,0,0-.48-.38Z"/></g></g></svg>