<svg xmlns="http://www.w3.org/2000/svg" viewBox="0 0 47.88 41.54"><defs><style>.cls-1,.cls-2{stroke:#000;stroke-miterlimit:10;}.cls-2{stroke-width:0.87px;}</style></defs><title>77-snow-grains_1</title><g id="Layer_2" data-name="Layer 2"><g id="Layer_1-2" data-name="Layer 1"><path d="M47.88,20.63A12.27,12.27,0,0,1,35.51,32.19c-8.89,0-17.78.09-26.66-.1A9.31,9.31,0,0,1,0,22.81a9.62,9.62,0,0,1,8.47-9.48A.74.74,0,0,0,9,12.81,13.28,13.28,0,0,1,19.69.28,13.61,13.61,0,0,1,34.62,7.72a.82.82,0,0,0,.58.44c7,.1,11.77,4.35,12.6,11.22a1.77,1.77,0,0,0,.08.31ZM22.7,29v.1h6.73c2.25,0,4.49,0,6.74,0a9,9,0,0,0,8.55-9.75,9.14,9.14,0,0,0-9.95-8,2.1,2.1,0,0,1-2.71-1.6A10.37,10.37,0,0,0,20.23,3.32,10.18,10.18,0,0,0,12,13.84c.15,2.27-.13,2.56-2.38,2.54A6.48,6.48,0,0,0,3.14,22c-.3,3.43,1.95,6.69,5.34,6.9C13.21,29.2,18,29,22.7,29Z"/><line class="cls-1" x1="8.22" y1="38.07" x2="11.72" y2="34.41"/><line class="cls-1" x1="13.39" y1="36.07" x2="15.89" y2="37.57"/><line class="cls-1" x1="18.06" y1="35.07" x2="18.72" y2="37.41"/><line class="cls-1" x1="21.56" y1="34.74" x2="23.22" y2="37.57"/><line class="cls-1" x1="13.22" y1="39.57" x2="11.72" y2="37.57"/><line class="cls-2" x1="16.31" y1="40.57" x2="17.06" y2="38.74"/><line class="cls-1" x1="21.72" y1="41.41" x2="20.89" y2="38.41"/><line class="cls-1" x1="26.56" y1="38.57" x2="30.22" y2="37.07"/><line class="cls-1" x1="38.56" y1="34.24" x2="37.56" y2="36.24"/><line class="cls-1" x1="32.72" y1="34.41" x2="34.22" y2="36.41"/><line class="cls-1" x1="25.91" y1="33.55" x2="26.16" y2="35.18"/><line class="cls-1" x1="28.66" y1="33.74" x2="27.79" y2="35.62"/><line class="cls-1" x1="23.79" y1="34.12" x2="23.22" y2="35.05"/><line class="cls-1" x1="15.97" y1="33.62" x2="15.22" y2="35.24"/><line class="cls-1" x1="7.66" y1="33.62" x2="7.79" y2="35.12"/><line class="cls-1" x1="9.54" y1="33.68" x2="10.41" y2="33.37"/><line class="cls-1" x1="25.29" y1="37.43" x2="23.72" y2="39.12"/><line class="cls-1" x1="25.85" y1="40.12" x2="27.1" y2="40.68"/><line class="cls-1" x1="31.97" y1="37.68" x2="31.22" y2="39.49"/><line class="cls-1" x1="28.97" y1="39.68" x2="29.41" y2="41.18"/><line class="cls-1" x1="35.22" y1="37.8" x2="33.6" y2="38.87"/><line class="cls-1" x1="30.72" y1="34.43" x2="31.29" y2="35.8"/><line class="cls-1" x1="36.04" y1="33.74" x2="35.22" y2="34.87"/><line class="cls-1" x1="9.97" y1="39.49" x2="11.29" y2="41.05"/></g></g></svg>