<svg xmlns="http://www.w3.org/2000/svg" viewBox="0 0 47.88 42.3"><defs><style>.cls-1{stroke:#000;stroke-linecap:round;stroke-linejoin:round;stroke-width:0.5px;}</style></defs><title>85-slight-snow-showers</title><g id="Layer_2" data-name="Layer 2"><g id="Layer_1-2" data-name="Layer 1"><path d="M47.88,20.63A12.27,12.27,0,0,1,35.51,32.19c-8.89,0-17.78.09-26.66-.1A9.31,9.31,0,0,1,0,22.81a9.62,9.62,0,0,1,8.47-9.48A.74.74,0,0,0,9,12.81,13.28,13.28,0,0,1,19.69.28,13.61,13.61,0,0,1,34.62,7.72a.82.82,0,0,0,.58.44c7,.1,11.77,4.35,12.6,11.22a1.77,1.77,0,0,0,.08.31ZM22.7,29v.1h6.73c2.25,0,4.49,0,6.74,0a9,9,0,0,0,8.55-9.75,9.14,9.14,0,0,0-9.95-8,2.1,2.1,0,0,1-2.71-1.6A10.37,10.37,0,0,0,20.23,3.32,10.18,10.18,0,0,0,12,13.84c.15,2.27-.13,2.56-2.38,2.54A6.48,6.48,0,0,0,3.14,22c-.3,3.43,1.95,6.69,5.34,6.9C13.21,29.2,18,29,22.7,29Z"/><path d="M15.73,42.05a.24.24,0,0,1-.24-.19l-.56-2.32L13,40.94a.27.27,0,0,1-.15.05.28.28,0,0,1-.17-.07.26.26,0,0,1,0-.31l1.25-2-2.36-.37a.25.25,0,0,1-.21-.24.25.25,0,0,1,.19-.25l2.32-.56-1.4-1.93a.26.26,0,0,1,0-.32.27.27,0,0,1,.18-.08.2.2,0,0,1,.13,0l2,1.25.37-2.36a.25.25,0,0,1,.24-.21h0a.24.24,0,0,1,.24.19l.56,2.32,1.93-1.4a.3.3,0,0,1,.15,0,.23.23,0,0,1,.17.07.24.24,0,0,1,0,.31l-1.25,2,2.36.37a.25.25,0,0,1,.21.24.24.24,0,0,1-.19.25l-2.32.56,1.4,1.93a.26.26,0,0,1,0,.32.25.25,0,0,1-.18.08.28.28,0,0,1-.13,0l-2-1.25L16,41.84a.26.26,0,0,1-.24.21Z"/><path d="M15.42,33.79l.64,2.68,2.24-1.62L16.86,37.2l2.72.44-2.68.64,1.62,2.24-2.36-1.45-.43,2.73-.64-2.68-2.24,1.62,1.45-2.36L11.57,38l2.68-.64-1.62-2.24L15,36.51l.43-2.72m0-.5h0a.48.48,0,0,0-.47.42l-.32,2L12.9,34.64a.68.68,0,0,0-.27-.07.5.5,0,0,0-.36.16.49.49,0,0,0,0,.63L13.41,37l-2,.47a.5.5,0,0,0,0,1l2,.32-1.05,1.71a.5.5,0,0,0,.08.63.51.51,0,0,0,.34.14.54.54,0,0,0,.3-.1L14.78,40l.46,2a.51.51,0,0,0,.49.38h0a.49.49,0,0,0,.47-.42l.32-2,1.72,1a.5.5,0,0,0,.26.08.5.5,0,0,0,.4-.8l-1.18-1.63,2-.46a.51.51,0,0,0,.38-.51.48.48,0,0,0-.42-.47l-2-.32,1-1.72a.49.49,0,0,0-.08-.62.51.51,0,0,0-.34-.14.45.45,0,0,0-.29.1l-1.63,1.18-.47-2a.51.51,0,0,0-.49-.38Z"/><path d="M25.67,38.27a.13.13,0,0,1-.12-.09l-.26-1.1-.91.66a.09.09,0,0,1-.07,0,.1.1,0,0,1-.08,0,.11.11,0,0,1,0-.14l.59-1-1.11-.18a.11.11,0,0,1-.1-.11.12.12,0,0,1,.09-.12L24.77,36l-.66-.91a.14.14,0,0,1,0-.15.18.18,0,0,1,.09,0l.06,0,1,.59.18-1.11a.11.11,0,0,1,.11-.1h0a.13.13,0,0,1,.12.09l.26,1.09.91-.66.07,0a.11.11,0,0,1,.08,0,.12.12,0,0,1,0,.15l-.59,1,1.11.17a.12.12,0,0,1,.1.12.12.12,0,0,1-.09.11l-1.09.27.66.91a.12.12,0,0,1,0,.15l-.09,0h-.06l-1-.59-.18,1.11s-.05.09-.11.1Z"/><path d="M25.52,34.38l.31,1.26,1.05-.76L26.2,36l1.28.2-1.26.3L27,37.55l-1.11-.68-.2,1.28-.3-1.26-1.06.76L25,36.54l-1.28-.2L25,36,24.21,35l1.11.68.2-1.28m0-.24h0a.24.24,0,0,0-.22.2l-.15.94-.81-.5a.24.24,0,0,0-.12,0,.22.22,0,0,0-.17.07.23.23,0,0,0,0,.3l.56.77-.93.22a.24.24,0,0,0-.18.24.24.24,0,0,0,.2.22l.94.15-.5.81a.23.23,0,0,0,0,.29.27.27,0,0,0,.16.06.23.23,0,0,0,.14,0l.77-.56.22.92a.23.23,0,0,0,.23.18h0a.22.22,0,0,0,.22-.19l.15-.94.81.5a.27.27,0,0,0,.12,0,.22.22,0,0,0,.17-.07.23.23,0,0,0,0-.3l-.55-.77.92-.22a.23.23,0,0,0,0-.46l-.94-.15.5-.81a.23.23,0,0,0-.2-.36.24.24,0,0,0-.14,0l-.77.55-.22-.92a.24.24,0,0,0-.23-.18Z"/><line class="cls-1" x1="18.16" y1="30.7" x2="16.16" y2="37.03"/><line class="cls-1" x1="27" y1="31.45" x2="25.66" y2="35.95"/></g></g></svg>