<svg xmlns="http://www.w3.org/2000/svg" viewBox="0 0 47.88 46.87"><defs><style>.cls-1{stroke:#000;stroke-linecap:round;stroke-linejoin:round;stroke-width:0.25px;}</style></defs><title>86-heavy-snow-showers</title><g id="Layer_2" data-name="Layer 2"><g id="Layer_1-2" data-name="Layer 1"><path d="M47.88,20.63A12.27,12.27,0,0,1,35.51,32.19c-8.89,0-17.78.09-26.66-.1A9.31,9.31,0,0,1,0,22.81a9.62,9.62,0,0,1,8.47-9.48A.74.74,0,0,0,9,12.81,13.28,13.28,0,0,1,19.69.28,13.61,13.61,0,0,1,34.62,7.72a.82.82,0,0,0,.58.44c7,.1,11.77,4.35,12.6,11.22a1.77,1.77,0,0,0,.08.31ZM22.7,29v.1h6.73c2.25,0,4.49,0,6.74,0a9,9,0,0,0,8.55-9.75,9.14,9.14,0,0,0-9.95-8,2.1,2.1,0,0,1-2.71-1.6A10.37,10.37,0,0,0,20.23,3.32,10.18,10.18,0,0,0,12,13.84c.15,2.27-.13,2.56-2.38,2.54A6.48,6.48,0,0,0,3.14,22c-.3,3.43,1.95,6.69,5.34,6.9C13.21,29.2,18,29,22.7,29Z"/><path d="M15.29,41.59a.24.24,0,0,1-.24-.2l-.56-2.32-1.93,1.4a.23.23,0,0,1-.15.05.27.27,0,0,1-.17-.06.26.26,0,0,1,0-.32l1.25-2-2.36-.38a.24.24,0,0,1-.21-.23.25.25,0,0,1,.19-.26l2.32-.55L12,34.75a.24.24,0,0,1,0-.31.22.22,0,0,1,.18-.08.28.28,0,0,1,.13,0l2,1.25.37-2.35a.25.25,0,0,1,.24-.21h0a.24.24,0,0,1,.24.19l.56,2.32,1.93-1.4a.23.23,0,0,1,.15,0,.23.23,0,0,1,.17.07.26.26,0,0,1,0,.31l-1.25,2,2.36.38a.25.25,0,0,1,0,.49L16.88,38l1.4,1.93a.24.24,0,0,1,0,.31.23.23,0,0,1-.18.08.28.28,0,0,1-.13,0l-2-1.25-.37,2.35a.27.27,0,0,1-.24.22Z"/><path d="M15,33.32,15.62,36l2.24-1.62-1.45,2.35,2.73.44-2.68.64,1.62,2.23-2.36-1.44-.43,2.73-.64-2.69-2.24,1.62,1.44-2.35-2.72-.43,2.68-.65-1.62-2.23,2.36,1.44L15,33.32m0-.5h0a.48.48,0,0,0-.47.42l-.32,2-1.72-1a.48.48,0,0,0-.26-.07.46.46,0,0,0-.36.16.49.49,0,0,0,0,.63L13,36.53,11,37a.49.49,0,0,0-.38.5.5.5,0,0,0,.42.48l2,.32L12,40a.49.49,0,0,0,.42.76.55.55,0,0,0,.3-.09l1.62-1.18.47,2a.51.51,0,0,0,.49.39h0a.49.49,0,0,0,.47-.43l.32-2,1.71,1a.54.54,0,0,0,.27.07.46.46,0,0,0,.36-.16.49.49,0,0,0,0-.63L17.3,38.13l2-.47a.49.49,0,0,0,.38-.5.51.51,0,0,0-.42-.48l-2-.31,1.05-1.72a.49.49,0,0,0-.42-.76.53.53,0,0,0-.3.09l-1.62,1.18-.47-1.95a.51.51,0,0,0-.49-.39Z"/><path d="M20.59,46.69a.18.18,0,0,1-.18-.14L20,44.88l-1.39,1a.2.2,0,0,1-.11,0,.16.16,0,0,1-.12-.05.18.18,0,0,1,0-.22l.9-1.47-1.7-.27a.17.17,0,0,1-.15-.17.19.19,0,0,1,.14-.18l1.67-.4-1-1.39a.19.19,0,0,1,0-.23.2.2,0,0,1,.14-.06l.09,0,1.47.9.27-1.7a.16.16,0,0,1,.17-.15h0a.18.18,0,0,1,.18.14l.4,1.67,1.39-1a.15.15,0,0,1,.11,0,.21.21,0,0,1,.12,0,.2.2,0,0,1,0,.23l-.9,1.46,1.7.27a.19.19,0,0,1,.15.17.18.18,0,0,1-.14.19l-1.67.4,1,1.39a.2.2,0,0,1,0,.23.24.24,0,0,1-.14,0l-.09,0L21,44.84l-.27,1.7a.18.18,0,0,1-.17.15Z"/><path d="M20.36,40.74l.47,1.93,1.61-1.17-1,1.7,2,.31L21.43,44l1.16,1.61-1.69-1-.31,2-.47-1.94-1.61,1.17,1-1.69-2-.32,1.93-.46-1.16-1.61,1.69,1,.31-2m0-.36h0a.36.36,0,0,0-.34.3l-.23,1.43-1.23-.76a.45.45,0,0,0-.19-.05.36.36,0,0,0-.27.12.35.35,0,0,0,0,.45l.85,1.18-1.41.33a.36.36,0,0,0,0,.71l1.43.23-.75,1.23a.35.35,0,0,0,.06.45.34.34,0,0,0,.24.1.36.36,0,0,0,.22-.07l1.17-.85.34,1.41a.36.36,0,0,0,.35.28h0a.36.36,0,0,0,.34-.31l.23-1.43,1.24.76a.29.29,0,0,0,.18,0,.39.39,0,0,0,.27-.11.36.36,0,0,0,0-.46L22,44.2l1.41-.34a.36.36,0,0,0,0-.7L22,42.93l.75-1.24a.35.35,0,0,0-.06-.45.39.39,0,0,0-.24-.1.44.44,0,0,0-.22.07l-1.17.85-.34-1.41a.35.35,0,0,0-.35-.27Z"/><path d="M37.58,41.34a.25.25,0,0,1-.24-.19l-.56-2.32-1.93,1.4a.27.27,0,0,1-.15.05.28.28,0,0,1-.17-.07.26.26,0,0,1,0-.31l1.25-2-2.36-.37a.25.25,0,0,1,0-.49l2.32-.56-1.4-1.93a.26.26,0,0,1,0-.32.27.27,0,0,1,.18-.08.25.25,0,0,1,.14,0l2,1.25L37,33a.25.25,0,0,1,.24-.21h0a.24.24,0,0,1,.24.19l.56,2.32L40,33.94a.3.3,0,0,1,.15,0,.28.28,0,0,1,.17.07.26.26,0,0,1,0,.32l-1.24,2,2.35.37a.25.25,0,0,1,.21.24.23.23,0,0,1-.19.25l-2.32.56,1.4,1.93a.26.26,0,0,1,0,.32.25.25,0,0,1-.18.08.2.2,0,0,1-.13,0l-2-1.25-.37,2.36a.25.25,0,0,1-.24.21Z"/><path d="M37.27,33.08l.64,2.68,2.24-1.62L38.71,36.5l2.72.43-2.68.64,1.62,2.24L38,38.37l-.44,2.72-.64-2.68L34.7,40l1.45-2.35-2.73-.44,2.68-.64-1.62-2.24,2.36,1.45.43-2.73m0-.5h0a.5.5,0,0,0-.47.42l-.32,2-1.71-1.05a.56.56,0,0,0-.27-.08.5.5,0,0,0-.36.16.51.51,0,0,0,0,.64l1.18,1.63-2,.46a.51.51,0,0,0-.38.51.49.49,0,0,0,.42.47l2,.32-1,1.72a.49.49,0,0,0,.08.62.51.51,0,0,0,.34.14.47.47,0,0,0,.3-.1l1.63-1.18.46,2a.51.51,0,0,0,.49.38h0a.48.48,0,0,0,.47-.42l.32-2,1.72,1a.5.5,0,0,0,.26.08.5.5,0,0,0,.36-.16.49.49,0,0,0,0-.63l-1.18-1.63,2-.47a.51.51,0,0,0,.38-.51.48.48,0,0,0-.42-.47l-2-.32,1.06-1.71a.51.51,0,0,0-.43-.77.51.51,0,0,0-.29.1l-1.63,1.18-.47-2a.51.51,0,0,0-.49-.38Z"/><path d="M28.48,43.48a.17.17,0,0,1-.16-.13L28,41.87l-1.23.9a.17.17,0,0,1-.1,0,.25.25,0,0,1-.11,0,.17.17,0,0,1,0-.2l.79-1.3L25.8,41a.15.15,0,0,1-.13-.15.14.14,0,0,1,.12-.16l1.48-.36-.9-1.23a.15.15,0,0,1,0-.2.13.13,0,0,1,.11-.05.15.15,0,0,1,.09,0l1.29.79.24-1.5a.17.17,0,0,1,.16-.13h0a.16.16,0,0,1,.16.12l.35,1.48L30,38.76a.19.19,0,0,1,.1,0,.15.15,0,0,1,.11,0,.16.16,0,0,1,0,.2l-.79,1.3,1.5.24a.16.16,0,0,1,.14.15.17.17,0,0,1-.13.16l-1.48.35.9,1.24a.15.15,0,0,1,0,.2.16.16,0,0,1-.11,0l-.09,0-1.29-.79-.24,1.5a.18.18,0,0,1-.15.14Z"/><path d="M28.28,38.21l.41,1.71,1.43-1-.92,1.51,1.74.27-1.72.41,1,1.43-1.5-.92-.28,1.74-.41-1.71-1.43,1,.92-1.5-1.73-.28,1.71-.41L26.5,39l1.5.92.28-1.73m0-.32h0a.31.31,0,0,0-.3.27l-.21,1.26-1.09-.67a.33.33,0,0,0-.17,0,.3.3,0,0,0-.23.1.32.32,0,0,0,0,.4l.75,1-1.25.3a.31.31,0,0,0-.24.32.32.32,0,0,0,.26.31l1.27.2-.67,1.09a.32.32,0,0,0,.06.4.3.3,0,0,0,.21.09.33.33,0,0,0,.19-.06l1-.76.3,1.25a.31.31,0,0,0,.31.25h0a.32.32,0,0,0,.3-.27L29,42.1l1.09.67a.34.34,0,0,0,.17,0,.32.32,0,0,0,.26-.51l-.76-1L31,41a.32.32,0,0,0,0-.62l-1.27-.2.67-1.1a.31.31,0,0,0-.06-.4.28.28,0,0,0-.21-.08.33.33,0,0,0-.19.06l-1,.75-.3-1.25a.31.31,0,0,0-.31-.24Z"/><path d="M23.79,38a.12.12,0,0,1-.11-.09l-.26-1.1-.91.66a.1.1,0,0,1-.07,0,.11.11,0,0,1-.08,0,.12.12,0,0,1,0-.15l.59-.95-1.11-.18a.12.12,0,0,1-.1-.11.1.1,0,0,1,.09-.12l1.09-.26-.66-.91a.12.12,0,0,1,0-.15.1.1,0,0,1,.09,0l.06,0,1,.59.18-1.11a.12.12,0,0,1,.11-.1h0a.11.11,0,0,1,.11.09L24,35.15l.91-.66.07,0a.11.11,0,0,1,.08,0,.12.12,0,0,1,0,.15l-.58,1,1.11.17a.12.12,0,0,1,.09.11.1.1,0,0,1-.09.12l-1.09.27.66.9a.12.12,0,0,1,0,.15.09.09,0,0,1-.08,0,.1.1,0,0,1-.07,0l-.95-.58-.18,1.11a.14.14,0,0,1-.11.1Z"/><path d="M23.65,34.09l.3,1.26L25,34.59l-.68,1.1,1.29.21-1.27.3.77,1L24,36.57l-.21,1.29-.3-1.27-1,.77.68-1.11L21.83,36l1.27-.3-.76-1.05,1.1.68.21-1.28m0-.24h0a.23.23,0,0,0-.22.2l-.15.93-.81-.49a.19.19,0,0,0-.12,0,.25.25,0,0,0-.18.08.26.26,0,0,0,0,.3l.56.76-.92.23a.22.22,0,0,0-.18.23.24.24,0,0,0,.2.23l.93.15-.49.8a.24.24,0,0,0,0,.3.23.23,0,0,0,.16.06.23.23,0,0,0,.14,0l.76-.56.22.92a.24.24,0,0,0,.23.18h0a.23.23,0,0,0,.23-.2l.15-.93.8.49a.2.2,0,0,0,.13,0,.25.25,0,0,0,.17-.08.23.23,0,0,0,0-.29l-.56-.77.92-.22a.24.24,0,0,0,.18-.24.22.22,0,0,0-.2-.22l-.93-.15.49-.81a.23.23,0,0,0,0-.3.23.23,0,0,0-.16-.06.27.27,0,0,0-.14,0L24.1,35,23.88,34a.23.23,0,0,0-.23-.18Z"/><path d="M13.35,45a.06.06,0,0,1-.06-.05l-.15-.62-.43.41h0l0,0a0,0,0,0,1,0-.07l.34-.55h-.6a.06.06,0,0,1,0-.06.07.07,0,0,1,0-.06l.63-.15-.41-.43s0-.05,0-.07a.06.06,0,0,1,.05,0h0l.55.33v-.59a.06.06,0,0,1,.06,0h0s.05,0,.05,0l.16.63.43-.41H14a.08.08,0,0,1,0,.08l-.34.54.6,0a.05.05,0,0,1,.05,0,.06.06,0,0,1-.05.06l-.62.15.41.43a.06.06,0,0,1,0,.08l0,0h0l-.55-.34V45a.06.06,0,0,1-.06.05Z"/><path d="M13.28,43.09l.15.62.52-.37-.34.55.64.1-.63.15.38.52-.55-.34-.1.64-.15-.63-.52.38.34-.55-.64-.1.63-.15-.38-.52.55.33.1-.63m0-.12h0a.12.12,0,0,0-.11.1l-.07.46-.4-.24-.06,0a.11.11,0,0,0-.09,0,.12.12,0,0,0,0,.15l.28.38-.46.11a.12.12,0,0,0-.09.11.11.11,0,0,0,.1.11l.46.08-.24.4a.12.12,0,0,0,0,.15.11.11,0,0,0,.08,0,.11.11,0,0,0,.07,0l.38-.27.11.46a.12.12,0,0,0,.11.09h0a.14.14,0,0,0,.11-.1l.07-.47.4.25.06,0a.18.18,0,0,0,.09,0,.12.12,0,0,0,0-.15l-.28-.38.46-.11a.12.12,0,0,0,.09-.12.14.14,0,0,0-.1-.11l-.47-.07.25-.4a.12.12,0,0,0,0-.15.11.11,0,0,0-.08,0l-.07,0-.38.28-.11-.46a.12.12,0,0,0-.11-.09Z"/><path d="M7.19,42.09A.11.11,0,0,1,7.11,42l.18-1.11-1.12.27a.14.14,0,0,1-.11-.07.14.14,0,0,1,0-.15L7,40.25l-1-.6a.11.11,0,0,1,0-.14.12.12,0,0,1,.11-.08l1.13.19L7,38.52a.12.12,0,0,1,.07-.13h.05a.12.12,0,0,1,.09,0l.66.91.59-1a.12.12,0,0,1,.1-.05h0a.13.13,0,0,1,.08.12l-.18,1.11,1.12-.26a.12.12,0,0,1,.1.07.12.12,0,0,1,0,.15l-.92.65,1,.59a.12.12,0,0,1,0,.15.14.14,0,0,1-.11.07l-1.13-.18.26,1.09a.13.13,0,0,1-.07.14H8.67a.11.11,0,0,1-.09,0l-.66-.91L7.33,42a.11.11,0,0,1-.1.06Z"/><path d="M8.55,38.45h0m0,0-.21,1.28,1.27-.3-1.06.76,1.11.69-1.29-.21.3,1.26-.76-1L7.23,42l.21-1.28L6.17,41l1.06-.76-1.11-.69,1.28.21L7.11,38.5l.76,1,.68-1.1m1.06,1h0M8.55,38.21h0l-.11,0h0l-.06,0v0l-.5.8-.55-.77a.26.26,0,0,0-.19-.1l-.1,0a.24.24,0,0,0-.13.27l.21.92-.93-.15h0a.23.23,0,0,0-.22.15.23.23,0,0,0,.1.28l.8.5L6,40.81a.22.22,0,0,0-.07.28.23.23,0,0,0,.21.14h0L7.15,41,7,41.94a.25.25,0,0,0,.15.26l.09,0a.24.24,0,0,0,.2-.11l.5-.81.55.77a.26.26,0,0,0,.19.1l.1,0a.24.24,0,0,0,.13-.27L8.68,41l.94.15h0A.25.25,0,0,0,9.88,41a.22.22,0,0,0-.1-.28l-.8-.5.75-.55a.22.22,0,0,0,.11-.2.23.23,0,0,0-.23-.23H9.55l-.92.22.15-.9s0-.05,0-.07a.24.24,0,0,0-.24-.24Zm0,.47Z"/><line class="cls-1" x1="15.08" y1="37.16" x2="17" y2="30.57"/><line class="cls-1" x1="7.83" y1="40.07" x2="10.75" y2="30.43"/><line class="cls-1" x1="23.75" y1="35.82" x2="25.31" y2="30.49"/><line class="cls-1" x1="13.41" y1="43.66" x2="15.33" y2="37.07"/><line class="cls-1" x1="20.41" y1="43.24" x2="23.87" y2="31.24"/><line class="cls-1" x1="28.5" y1="40.57" x2="31.37" y2="30.8"/><line class="cls-1" x1="37.75" y1="36.49" x2="39.66" y2="29.91"/></g></g></svg>