<svg xmlns="http://www.w3.org/2000/svg" viewBox="0 0 47.88 54.27"><title>95-thunderstorm_1</title><g id="Layer_2" data-name="Layer 2"><g id="Layer_1-2" data-name="Layer 1"><path d="M47.88,20.63A12.27,12.27,0,0,1,35.51,32.19c-8.89,0-17.78.09-26.66-.1A9.31,9.31,0,0,1,0,22.81a9.62,9.62,0,0,1,8.47-9.48A.74.74,0,0,0,9,12.81,13.28,13.28,0,0,1,19.69.28,13.61,13.61,0,0,1,34.62,7.72a.82.82,0,0,0,.58.44c7,.1,11.77,4.35,12.6,11.22a1.77,1.77,0,0,0,.08.31ZM22.7,29v.1h6.73c2.25,0,4.49,0,6.74,0a9,9,0,0,0,8.55-9.75,9.14,9.14,0,0,0-9.95-8,2.1,2.1,0,0,1-2.71-1.6A10.37,10.37,0,0,0,20.23,3.32,10.18,10.18,0,0,0,12,13.84c.15,2.27-.13,2.56-2.38,2.54A6.48,6.48,0,0,0,3.14,22c-.3,3.43,1.95,6.69,5.34,6.9C13.21,29.2,18,29,22.7,29Z"/><path d="M20.43,42.09a.76.76,0,0,0-.7-1,1,1,0,0,0-.24,0l-1.8.62,5.07-17.18,4.49-.21L21.8,36.25a.74.74,0,0,0,.09.77.72.72,0,0,0,.59.29h.13l2.18-.37L18.51,47Z"/><path d="M26.05,25.14l-4.93,10.8a1.48,1.48,0,0,0,.17,1.54,1.51,1.51,0,0,0,1.19.58,1.14,1.14,0,0,0,.26,0l.52-.09-2.11,3.37a1.41,1.41,0,0,0-.34-.54,1.49,1.49,0,0,0-1.08-.47,1.41,1.41,0,0,0-.49.09l-.42.14,4.51-15.28,2.72-.12m2.39-1.62Zm0,0-6.25.29L16.56,42.9l3.17-1.09L14.81,54.27,26.31,35.9l-3.83.66,6-13Z"/></g></g></svg>