<svg xmlns="http://www.w3.org/2000/svg" viewBox="0 0 45.69 47"><title>jacket</title><g id="Layer_2" data-name="Layer 2"><g id="Layer_1-2" data-name="Layer 1"><g id="AuSrQy"><path d="M10.29,38.68c-.23,1.12-.4,2.13-.63,3.12A17.44,17.44,0,0,1,9,43.92c-.3.76-.67,1.5-1,2.25A1.33,1.33,0,0,1,6.67,47H1.86a1.19,1.19,0,0,1-1.27-.9A17.88,17.88,0,0,1,0,42c.28-4.68.7-9.34,1.15-14A100.87,100.87,0,0,1,3,15.75c.39-1.77.84-3.54,1.39-5.27A8.23,8.23,0,0,1,9.66,5c1.77-.66,3.55-1.25,5.33-1.85.36-.12.52-.26.51-.67A1.35,1.35,0,0,1,16.59,1,19.53,19.53,0,0,1,28.89,1c1,.32,1.28.65,1.3,1.7a.42.42,0,0,0,.34.46C32.37,3.74,34.22,4.36,36,5a8.37,8.37,0,0,1,5.22,5.42,55.37,55.37,0,0,1,2.21,9.76C44,24.09,44.54,28,44.94,31.87c.36,3.39.62,6.79.74,10.19a18.77,18.77,0,0,1-.59,4A1.13,1.13,0,0,1,43.9,47c-1.66,0-3.33,0-5,0a1.38,1.38,0,0,1-1.22-.88,20.14,20.14,0,0,1-2.14-6.66,2.31,2.31,0,0,0-.21-.71,1.09,1.09,0,0,0-.05.17,1.69,1.69,0,0,1-1.54,1.34c-2.43.5-4.86,1-7.29,1.58a1.34,1.34,0,0,1-1.8-1.27c-.07-.6-.11-1.2-.17-1.85H21.2c-.05.56-.1,1.1-.15,1.63-.11,1.29-.71,1.73-2,1.45l-7.43-1.61a1.41,1.41,0,0,1-1.16-1C10.45,39,10.39,38.92,10.29,38.68Zm9.86-1c-3-.58-5.93-1.14-8.86-1.72a.91.91,0,0,1-.55-.28.68.68,0,0,1,0-.59c.15-.33.48-.28.78-.23l6.41,1.24,2.32.44a1.86,1.86,0,0,0,.06-.29l.87-9.63c.3-3.31.61-6.63.89-9.94.1-1.15.14-2.3.13-3.44,0-.92-.18-1.83-.23-2.75a4,4,0,0,1,.1-1.24c.08-.31,0-.43-.25-.53L20.22,8c-1.91-.84-3.71-1.8-4.57-4-2.13.78-4.25,1.49-6.32,2.33a7.09,7.09,0,0,0-2,1.42,7.92,7.92,0,0,0-2.15,4A108.73,108.73,0,0,0,2,30.49c-.33,3.2-.5,6.42-.83,9.63a17.25,17.25,0,0,0,.4,5.41.38.38,0,0,0,.44.35H6.56a.5.5,0,0,0,.38-.19c.36-.75.7-1.51,1.07-2.34H2.12c-.46,0-.7-.21-.7-.56s.23-.56.7-.56H8.43c.35-1.77.71-3.48,1-5.21a2.51,2.51,0,0,0-.07-.94,10,10,0,0,1-.3-1.26c-.23-5.1-.48-10.2-.63-15.3A14.1,14.1,0,0,0,7,13.11c-.22-.43-.38-.89-.56-1.33s-.12-.79.21-.92.62,0,.82.48c.46,1.08,1,2.16,1.37,3.26a7.29,7.29,0,0,1,.5,2c.15,1.81.21,3.64.29,5.45l.54,12.69a1.64,1.64,0,0,0,.09.5c.4,1.15.81,2.29,1.2,3.44a.6.6,0,0,0,.52.44l3,.66,4.38,1c.23.05.48.12.51-.25C20,39.55,20.07,38.64,20.15,37.69Zm5.39,0c.08,1,.16,1.86.24,2.78,0,.37.28.3.51.25,2.44-.53,4.89-1.08,7.34-1.6a.7.7,0,0,0,.59-.55c.36-1.06.75-2.11,1.11-3.17a2.92,2.92,0,0,0,.15-.77c.22-5,.42-10,.64-15a13.75,13.75,0,0,1,.68-5l1.38-3.26c.19-.46.48-.62.82-.48s.4.46.21.92c-.43,1-.89,2-1.28,3.05a6.63,6.63,0,0,0-.51,1.84c-.14,1.79-.2,3.6-.28,5.4q-.26,6.08-.5,12.13a3.07,3.07,0,0,1-.12,1.15,3.68,3.68,0,0,0-.1,2.71c.1.43.17.86.26,1.28.19,1,.38,1.91.58,2.88h6.35c.39,0,.66.15.65.56s-.28.56-.65.56H37.67c.38.83.72,1.59,1.08,2.34a.42.42,0,0,0,.33.19c1.56,0,3.11,0,4.67,0a.45.45,0,0,0,.3-.21,19.11,19.11,0,0,0,.52-3.49c0-2.34-.22-4.67-.47-7-.5-4.73-1-9.46-1.65-14.18a56.67,56.67,0,0,0-2.24-10.14A7.22,7.22,0,0,0,35.68,6.1c-1.79-.67-3.61-1.27-5.42-1.89a1.31,1.31,0,0,0-.22,0,12.26,12.26,0,0,1-.71,1.2,7.47,7.47,0,0,1-3,2.31c-.78.36-1.57.68-2.35,1A1.42,1.42,0,0,0,23,10.25c0,.4.07.81.11,1.21.36,3.92.73,7.84,1.08,11.76s.71,8,1.07,12c0,.45.09.91.15,1.39l4.19-.8,4.53-.88c.3-.06.6-.1.8.21s0,.78-.53.88ZM21.44,7.33A3.87,3.87,0,0,0,20.07,4q-.69-.51-1.41-1c-.32-.21-.48-.47-.27-.82a.54.54,0,0,1,.84-.14c.41.26.8.55,1.21.79a1.31,1.31,0,0,0,.63.18c.89,0,1.78-.1,2.66,0a2.53,2.53,0,0,0,2.17-.6,2.55,2.55,0,0,1,.47-.31c.33-.21.64-.27.91.08s.07.62-.32.89a18.24,18.24,0,0,0-1.58,1.15,3.62,3.62,0,0,0-1.06,3.12,22.75,22.75,0,0,0,3.16-1.7,3.32,3.32,0,0,0,1.6-3,.55.55,0,0,0-.45-.59,19.34,19.34,0,0,0-4.52-.88A18.54,18.54,0,0,0,17,2.08a.48.48,0,0,0-.37.5A3.23,3.23,0,0,0,17.53,5,10.52,10.52,0,0,0,21.44,7.33ZM22.9,21h-.11L21.57,34.59h2.55Q23.51,27.76,22.9,21Zm1.49,16.55-.16-1.76H21.46l-.15,1.76ZM24,4.11H21.74a6.76,6.76,0,0,1,.84,3.54c0,.13.17.25.26.38.09-.13.26-.25.26-.37A6.64,6.64,0,0,1,24,4.11Z"/><path d="M11.3,32.3,12.05,27c0-.3.09-.61.13-.92.07-.48.32-.73.67-.66s.51.41.45.79l-.6,4.19c-.09.66-.19,1.33-.28,2a.54.54,0,0,1-.6.52C11.45,32.92,11.29,32.67,11.3,32.3Z"/><path d="M32.38,26.19c0-.42.1-.68.48-.72a.54.54,0,0,1,.63.53q.43,3.12.88,6.22c.05.39-.08.67-.48.72s-.58-.21-.64-.58l-.69-4.89C32.5,27,32.43,26.58,32.38,26.19Z"/><path d="M24.46,11.69a.81.81,0,0,1-.78-.83.8.8,0,0,1,1.6,0A.81.81,0,0,1,24.46,11.69Z"/><path d="M27.45,39.82a.8.8,0,0,1,0-1.6.82.82,0,0,1,.8.81A.8.8,0,0,1,27.45,39.82Z"/><path d="M27,29.64a.81.81,0,0,1-1.61,0,.81.81,0,0,1,1.61,0Z"/><path d="M25.26,21.06a.78.78,0,0,1-.77-.82.8.8,0,0,1,.82-.78.82.82,0,0,1,.78.83A.8.8,0,0,1,25.26,21.06Z"/></g></g></g></svg>