<svg xmlns="http://www.w3.org/2000/svg" viewBox="0 0 47.3 44.93"><title>umbrella</title><g id="Layer_2" data-name="Layer 2"><g id="Layer_1-2" data-name="Layer 1"><path d="M13.59,27.83c2.37-3,4.92-5.79,8.73-7.16.27,1.58.53,3.06.79,4.54.88,5.1,1.77,10.2,2.62,15.3A4.06,4.06,0,0,1,25.66,42a1.59,1.59,0,0,1-2.18,1.12A1.1,1.1,0,0,1,22.62,42a.8.8,0,0,0-.86-1c-.56,0-.78.41-.81.94a3.05,3.05,0,0,0,4,2.87,3.53,3.53,0,0,0,2.51-4.06c-.36-2.53-.82-5-1.25-7.55Q25.13,27,24.05,20.87a5,5,0,0,1-.05-.62c4.1-.61,7.49.93,10.7,3.27-.55-1.47-1.08-2.95-1.66-4.4A63.78,63.78,0,0,0,26.56,6.43a22.71,22.71,0,0,0-2-2.49,6.38,6.38,0,0,0-3.81-2.29c-.07-.34-.13-.65-.2-1a.78.78,0,0,0-1-.66.73.73,0,0,0-.64,1,1.83,1.83,0,0,1-.56,1.88,14.42,14.42,0,0,0-2.59,5.65A58.13,58.13,0,0,0,14,19.71c-.2,2.57-.28,5.15-.41,7.72C13.58,27.57,13.59,27.7,13.59,27.83Z"/><path d="M21.64,1.29c3.35,1.3,5.21,4.1,7,7a77,77,0,0,1,6.54,14.27c.08.21.16.41.28.7.35-.91.64-1.73,1-2.53a9.53,9.53,0,0,1,2.7-3.75,7.44,7.44,0,0,1,7.11-1.21c.29.08.57.18,1.08.35-.28-.53-.44-.94-.68-1.3a32.52,32.52,0,0,0-7.39-7.51A29.24,29.24,0,0,0,28,1.77a19.69,19.69,0,0,0-2.95-.47C23.92,1.22,22.78,1.29,21.64,1.29Z"/><path d="M18.48,1.9a18.21,18.21,0,0,0-7.4,4A41,41,0,0,0,.17,21.48c-.06.14-.09.3-.17.57,6-2.32,9.79.44,12.84,5.26v-.72A82,82,0,0,1,15,8.66a22.38,22.38,0,0,1,.9-2.77A9.22,9.22,0,0,1,18.48,1.9Z"/></g></g></svg>